<?xml version="1.0" standalone="no"?>
<!DOCTYPE svg PUBLIC "-//W3C//DTD SVG 20010904//EN"
 "http://www.w3.org/TR/2001/REC-SVG-20010904/DTD/svg10.dtd">
<svg version="1.0" xmlns="http://www.w3.org/2000/svg"
 width="1280.000000pt" height="1224.000000pt" viewBox="0 0 1280.000000 1224.000000"
 preserveAspectRatio="xMidYMid meet">
<g transform="translate(0.000000,1224.000000) scale(0.100000,-0.100000)"
fill="#000000" stroke="none">
<path d="M9705 12199 c-515 -110 -887 -248 -1172 -436 -302 -198 -625 -547 -781 -843 -107 -203 -159 -393 -148 -545 19 -286 139 -580 389 -955 277 -416 505 -615 744 -650 148 -21 265 -5 343 46 42 28 118 122 151 186 26 50 49 143 49 194 0 23 -8 66 -17 95 -15 49 -38 76 -258 299 -242 247 -415 453 -501 600 -93 159 -109 296 -51 430 44 99 284 560 330 631 137 215 373 434 779 727 158 113 278 214 278 234 0 12 -34 8 -135 -13z"/>
<path d="M810 11761 c-332 -73 -597 -303 -716 -620 -135 -360 -47 -765 226 -1038 439 -438 1172 -366 1513 149 222 334 221 760 -2 1098 -50 76 -161 191 -237 245 -85 61 -231 130 -329 156 -116 31 -339 36 -455 10z"/>
<path d="M7934 11519 c-139 -89 -463 -364 -901 -766 -1384 -1270 -1678 -1548 -2374 -2237 -583 -578 -686 -690 -795 -861 -174 -272 -256 -572 -210 -768 28 -120 96 -226 163 -253 39 -17 261 -19 349 -4 226 40 446 160 650 353 182 172 724 811 896 1057 25 36 161 243 301 461 261 405 533 819 1225 1866 706 1067 766 1162 750 1178 -2 3 -27 -9 -54 -26z"/>
<path d="M10271 11235 c-205 -45 -364 -130 -503 -269 -123 -123 -200 -253 -255 -433 -24 -80 -27 -103 -27 -258 -1 -148 2 -180 22 -249 104 -359 349 -604 708 -708 69 -20 101 -23 249 -22 154 0 178 3 256 27 177 54 319 137 435 255 121 121 196 250 251 429 25 81 27 101 27 263 0 161 -2 182 -27 265 -110 366 -388 623 -759 699 -95 20 -288 20 -377 1z"/>
<path d="M5873 10807 c-21 -23 -76 -94 -121 -158 -77 -110 -123 -164 -421 -493 -151 -167 -322 -324 -440 -404 -195 -134 -449 -232 -726 -279 -157 -28 -526 -24 -710 6 -266 44 -524 116 -772 217 -172 70 -230 85 -335 85 -71 0 -97 -5 -149 -27 -121 -50 -199 -121 -220 -196 -25 -95 16 -223 108 -334 57 -68 207 -200 299 -263 130 -87 313 -159 509 -198 107 -21 678 -30 850 -13 315 30 594 102 819 210 399 191 772 588 1019 1085 49 98 146 313 244 540 53 121 104 265 94 265 -5 0 -26 -19 -48 -43z"/>
<path d="M454 9426 c-107 -34 -250 -179 -328 -334 -93 -184 -143 -484 -117 -702 6 -52 16 -138 22 -190 75 -674 423 -1457 775 -1741 111 -90 110 -90 237 -96 155 -8 247 8 457 77 547 180 1087 512 1680 1036 63 56 135 123 160 150 50 54 95 122 87 130 -16 16 -322 -69 -547 -152 -206 -75 -266 -94 -525 -165 -442 -121 -569 -164 -795 -272 -63 -30 -137 -63 -165 -72 -64 -22 -189 -32 -200 -16 -19 31 -81 561 -115 976 -11 138 -24 300 -30 360 -5 61 -14 169 -20 240 -19 215 -61 398 -142 607 l-29 78 -72 35 c-127 63 -240 80 -333 51z"/>
<path d="M11463 8790 c-137 -29 -251 -161 -298 -345 -20 -78 -19 -110 5 -186 26 -87 72 -159 172 -276 304 -352 513 -691 620 -1006 26 -76 32 -112 36 -208 4 -100 1 -126 -17 -180 -40 -120 -202 -385 -372 -609 -123 -162 -225 -277 -513 -576 -138 -144 -259 -275 -269 -292 -18 -31 -18 -32 2 -32 87 0 728 204 896 285 179 87 335 198 529 378 165 152 365 406 444 562 54 109 107 314 99 386 -32 289 -56 424 -107 623 -99 387 -263 783 -421 1021 -183 276 -433 441 -694 459 -39 3 -89 1 -112 -4z"/>
<path d="M2975 6726 c-232 -184 -365 -386 -425 -642 -46 -193 -51 -284 -50 -898 0 -679 3 -712 90 -1326 42 -295 77 -558 130 -967 11 -84 29 -222 40 -305 11 -84 69 -547 129 -1028 175 -1393 172 -1368 197 -1430 12 -27 17 -32 23 -20 12 22 55 242 101 520 41 249 50 326 140 1150 28 256 64 584 80 730 28 257 116 1061 145 1325 7 72 16 171 20 220 6 94 14 209 40 555 9 113 27 331 40 485 56 630 14 1007 -147 1330 -84 167 -150 241 -277 305 -57 28 -152 60 -181 60 -8 0 -51 -29 -95 -64z"/>
<path d="M9370 5813 c-56 -9 -91 -26 -115 -55 -37 -44 -100 -173 -138 -281 -31 -90 -31 -96 -32 -267 0 -205 11 -270 84 -490 53 -159 108 -294 239 -590 148 -334 298 -618 484 -920 197 -320 509 -839 975 -1625 739 -1243 961 -1600 963 -1547 0 22 -39 206 -85 397 -55 228 -96 370 -426 1470 -374 1245 -438 1449 -624 1980 -68 193 -162 469 -210 615 -101 307 -163 467 -239 619 -153 304 -388 564 -591 651 -91 39 -205 57 -285 43z"/>
<path d="M8335 5800 c-97 -14 -211 -52 -320 -104 -213 -103 -329 -205 -554 -486 -428 -533 -741 -998 -1013 -1500 -137 -254 -1002 -1787 -1523 -2700 -388 -680 -505 -892 -505 -915 0 -33 129 74 370 310 220 214 587 604 1475 1565 236 256 486 526 555 600 261 281 342 372 860 974 117 136 270 311 339 389 253 281 349 404 453 573 112 181 223 431 270 602 26 96 32 356 9 437 -20 71 -76 177 -120 224 l-38 41 -104 -1 c-57 -1 -126 -5 -154 -9z"/>
</g>
</svg>
