<svg aria-hidden="true" data-prefix="fal" data-icon="building-flag" class="svg-inline--fa fa-building-flag" xmlns="http://www.w3.org/2000/svg" viewBox="0 0 640 512"><path fill="currentcolor" d="M64 32c-17.7.0-32 14.3-32 32v384c0 17.7 14.3 32 32 32h64v-64c0-35.3 28.7-64 64-64s64 28.7 64 64v64h64c17.7.0 32-14.3 32-32V64c0-17.7-14.3-32-32-32H64zm160 384c0-17.7-14.3-32-32-32s-32 14.3-32 32v64h64v-64zm-96 96H64c-35.3.0-64-28.7-64-64V64C0 28.7 28.7.0 64 0h256c35.3.0 64 28.7 64 64v384c0 35.3-28.7 64-64 64H128zM64 120c0-13.3 10.7-24 24-24h48c13.3.0 24 10.7 24 24v48c0 13.3-10.7 24-24 24H88c-13.3.0-24-10.7-24-24v-48zm32 8v32h32v-32H96zm152-32h48c13.3.0 24 10.7 24 24v48c0 13.3-10.7 24-24 24h-48c-13.3.0-24-10.7-24-24v-48c0-13.3 10.7-24 24-24zm8 64h32v-32h-32v32zM64 248c0-13.3 10.7-24 24-24h48c13.3.0 24 10.7 24 24v48c0 13.3-10.7 24-24 24H88c-13.3.0-24-10.7-24-24v-48zm32 8v32h32v-32H96zm152-32h48c13.3.0 24 10.7 24 24v48c0 13.3-10.7 24-24 24h-48c-13.3.0-24-10.7-24-24v-48c0-13.3 10.7-24 24-24zm8 64h32v-32h-32v32zM432 0c8.8.0 16 7.2 16 16v16h160c17.7.0 32 14.3 32 32v128c0 17.7-14.3 32-32 32H448v272c0 8.8-7.2 16-16 16s-16-7.2-16-16V16c0-8.8 7.2-16 16-16zm16 192h160V64H448v128z"/></svg>